<?xml version="1.0" encoding="UTF-8" standalone="no"?>
<!DOCTYPE svg PUBLIC "-//W3C//DTD SVG 1.1//EN" "http://www.w3.org/Graphics/SVG/1.1/DTD/svg11.dtd">
<!-- Created with Vectornator (http://vectornator.io/) -->
<svg height="100%" stroke-miterlimit="10" style="fill-rule:nonzero;clip-rule:evenodd;stroke-linecap:round;stroke-linejoin:round;" version="1.1" viewBox="0 0 458.592 200" width="100%" xml:space="preserve" xmlns="http://www.w3.org/2000/svg" xmlns:xlink="http://www.w3.org/1999/xlink">
<defs>
<filter color-interpolation-filters="sRGB" filterUnits="userSpaceOnUse" height="186.057" id="Filter" width="451.104" x="-2.72605" y="59.9466">
<feDropShadow dx="-3.61999e-05" dy="10" flood-color="#31b8d1" flood-opacity="1" in="SourceGraphic" result="Shadow" stdDeviation="5"/>
</filter>
</defs>
<clipPath id="ArtboardFrame">
<rect height="200" width="458.592" x="0" y="0"/>
</clipPath>
<g clip-path="url(#ArtboardFrame)" id="レイヤー-1">
<g filter="url(#Filter)">
<g opacity="1">
<clipPath id="ClipPath">
<path d="M7.27399 59.9466L438.378 59.9466L438.378 59.9466L438.378 226.004L438.378 226.004L7.27399 226.004L7.27399 226.004L7.27399 59.9466L7.27399 59.9466Z"/>
</clipPath>
<g clip-path="url(#ClipPath)">
<path d="M80.9646 90.9466L65.7068 90.9466L65.7068 87.783C66.7663 86.8748 67.8284 85.9666 68.893 85.0584C69.9577 84.1502 70.9491 83.247 71.8674 82.3489C73.8049 80.4719 75.1319 78.981 75.8484 77.876C76.5648 76.771 76.9231 75.5777 76.9231 74.2962C76.9231 73.1256 76.5371 72.2098 75.7651 71.5488C74.9931 70.8879 73.9159 70.5574 72.5334 70.5574C71.6151 70.5574 70.6211 70.7188 69.5515 71.0418C68.4818 71.3647 67.4374 71.8591 66.4182 72.5252L66.2668 72.5252L66.2668 69.3465C66.9833 68.9933 67.9394 68.6703 69.1352 68.3777C70.331 68.0851 71.489 67.9387 72.6091 67.9387C74.92 67.9387 76.7313 68.4963 78.0432 69.6113C79.355 70.7264 80.011 72.2376 80.011 74.1448C80.011 75.0025 79.9025 75.8023 79.6855 76.544C79.4686 77.2857 79.1482 77.9895 78.7243 78.6555C78.3308 79.2812 77.8691 79.8967 77.3393 80.5022C76.8095 81.1077 76.1662 81.7787 75.4094 82.5154C74.3296 83.575 73.2146 84.6017 72.0642 85.5957C70.9138 86.5897 69.8391 87.5105 68.8401 88.3582L80.9646 88.3582L80.9646 90.9466Z" fill="#14a2b1" fill-rule="nonzero" opacity="1" stroke="none"/>
</g>
</g>
<g opacity="1">
<clipPath id="ClipPath_2">
<path d="M7.27399 59.9466L438.378 59.9466L438.378 59.9466L438.378 226.004L438.378 226.004L7.27399 226.004L7.27399 226.004L7.27399 59.9466L7.27399 59.9466Z"/>
</clipPath>
<g clip-path="url(#ClipPath_2)">
<path d="M100.642 79.6697C100.642 83.7162 100.009 86.6856 98.7426 88.5777C97.4762 90.4697 95.511 91.4158 92.8469 91.4158C90.1425 91.4158 88.1671 90.4571 86.9209 88.5398C85.6746 86.6225 85.0515 83.6759 85.0515 79.7C85.0515 75.6938 85.6822 72.7346 86.9436 70.8223C88.205 68.91 90.1727 67.9539 92.8469 67.9539C95.5513 67.9539 97.5267 68.9251 98.7729 70.8677C100.019 72.8102 100.642 75.7442 100.642 79.6697ZM96.6613 86.5418C97.0145 85.7244 97.2542 84.7632 97.3803 83.6582C97.5065 82.5532 97.5696 81.2237 97.5696 79.6697C97.5696 78.1358 97.5065 76.8038 97.3803 75.6736C97.2542 74.5434 97.0095 73.5847 96.6462 72.7976C96.293 72.0206 95.8112 71.4353 95.2007 71.0418C94.5901 70.6482 93.8056 70.4514 92.8469 70.4514C91.8983 70.4514 91.1137 70.6482 90.4931 71.0418C89.8725 71.4353 89.3806 72.0307 89.0173 72.8279C88.6742 73.5746 88.4396 74.5484 88.3134 75.7493C88.1873 76.9501 88.1242 78.267 88.1242 79.7C88.1242 81.2742 88.1797 82.5911 88.2907 83.6507C88.4017 84.7102 88.6389 85.6588 89.0022 86.4964C89.3352 87.2835 89.8069 87.8839 90.4175 88.2976C91.028 88.7114 91.8378 88.9182 92.8469 88.9182C93.7955 88.9182 94.5826 88.7215 95.2082 88.3279C95.8339 87.9343 96.3182 87.339 96.6613 86.5418Z" fill="#14a2b1" fill-rule="nonzero" opacity="1" stroke="none"/>
</g>
</g>
<g opacity="1">
<clipPath id="ClipPath_3">
<path d="M7.27399 59.9466L438.378 59.9466L438.378 59.9466L438.378 226.004L438.378 226.004L7.27399 226.004L7.27399 226.004L7.27399 59.9466L7.27399 59.9466Z"/>
</clipPath>
<g clip-path="url(#ClipPath_3)">
<path d="M120.381 90.9466L105.123 90.9466L105.123 87.783C106.182 86.8748 107.244 85.9666 108.309 85.0584C109.374 84.1502 110.365 83.247 111.283 82.3489C113.221 80.4719 114.548 78.981 115.264 77.876C115.981 76.771 116.339 75.5777 116.339 74.2962C116.339 73.1256 115.953 72.2098 115.181 71.5488C114.409 70.8879 113.332 70.5574 111.949 70.5574C111.031 70.5574 110.037 70.7188 108.968 71.0418C107.898 71.3647 106.853 71.8591 105.834 72.5252L105.683 72.5252L105.683 69.3465C106.399 68.9933 107.355 68.6703 108.551 68.3777C109.747 68.0851 110.905 67.9387 112.025 67.9387C114.336 67.9387 116.147 68.4963 117.459 69.6113C118.771 70.7264 119.427 72.2376 119.427 74.1448C119.427 75.0025 119.318 75.8023 119.102 76.544C118.885 77.2857 118.564 77.9895 118.14 78.6555C117.747 79.2812 117.285 79.8967 116.755 80.5022C116.226 81.1077 115.582 81.7787 114.825 82.5154C113.746 83.575 112.631 84.6017 111.48 85.5957C110.33 86.5897 109.255 87.5105 108.256 88.3582L120.381 88.3582L120.381 90.9466Z" fill="#14a2b1" fill-rule="nonzero" opacity="1" stroke="none"/>
</g>
</g>
<g opacity="1">
<clipPath id="ClipPath_4">
<path d="M7.27399 59.9466L438.378 59.9466L438.378 59.9466L438.378 226.004L438.378 226.004L7.27399 226.004L7.27399 226.004L7.27399 59.9466L7.27399 59.9466Z"/>
</clipPath>
<g clip-path="url(#ClipPath_4)">
<path d="M140.089 90.9466L124.831 90.9466L124.831 87.783C125.89 86.8748 126.952 85.9666 128.017 85.0584C129.082 84.1502 130.073 83.247 130.991 82.3489C132.929 80.4719 134.256 78.981 134.972 77.876C135.689 76.771 136.047 75.5777 136.047 74.2962C136.047 73.1256 135.661 72.2098 134.889 71.5488C134.117 70.8879 133.04 70.5574 131.657 70.5574C130.739 70.5574 129.745 70.7188 128.676 71.0418C127.606 71.3647 126.561 71.8591 125.542 72.5252L125.391 72.5252L125.391 69.3465C126.107 68.9933 127.063 68.6703 128.259 68.3777C129.455 68.0851 130.613 67.9387 131.733 67.9387C134.044 67.9387 135.855 68.4963 137.167 69.6113C138.479 70.7264 139.135 72.2376 139.135 74.1448C139.135 75.0025 139.027 75.8023 138.81 76.544C138.593 77.2857 138.272 77.9895 137.848 78.6555C137.455 79.2812 136.993 79.8967 136.463 80.5022C135.934 81.1077 135.29 81.7787 134.533 82.5154C133.454 83.575 132.339 84.6017 131.188 85.5957C130.038 86.5897 128.963 87.5105 127.964 88.3582L140.089 88.3582L140.089 90.9466Z" fill="#14a2b1" fill-rule="nonzero" opacity="1" stroke="none"/>
</g>
</g>
<g opacity="1">
<clipPath id="ClipPath_5">
<path d="M7.27399 59.9466L438.378 59.9466L438.378 59.9466L438.378 226.004L438.378 226.004L7.27399 226.004L7.27399 226.004L7.27399 59.9466L7.27399 59.9466Z"/>
</clipPath>
<g clip-path="url(#ClipPath_5)">
<path d="M155.119 67.3938L144.266 95.5481L141.648 95.5481L152.455 67.3938L155.119 67.3938Z" fill="#14a2b1" fill-rule="nonzero" opacity="1" stroke="none"/>
</g>
</g>
<g opacity="1">
<clipPath id="ClipPath_6">
<path d="M7.27399 59.9466L438.378 59.9466L438.378 59.9466L438.378 226.004L438.378 226.004L7.27399 226.004L7.27399 226.004L7.27399 59.9466L7.27399 59.9466Z"/>
</clipPath>
<g clip-path="url(#ClipPath_6)">
<path d="M172.587 90.9466L160.387 90.9466L160.387 88.6458L165.079 88.6458L165.079 73.5393L160.387 73.5393L160.387 71.4807C161.023 71.4807 161.704 71.4278 162.43 71.3218C163.157 71.2158 163.707 71.0619 164.08 70.8601C164.544 70.6078 164.91 70.2875 165.178 69.8989C165.445 69.5104 165.599 68.9882 165.639 68.3323L167.986 68.3323L167.986 88.6458L172.587 88.6458L172.587 90.9466Z" fill="#14a2b1" fill-rule="nonzero" opacity="1" stroke="none"/>
</g>
</g>
<g opacity="1">
<clipPath id="ClipPath_7">
<path d="M7.27399 59.9466L438.378 59.9466L438.378 59.9466L438.378 226.004L438.378 226.004L7.27399 226.004L7.27399 226.004L7.27399 59.9466L7.27399 59.9466Z"/>
</clipPath>
<g clip-path="url(#ClipPath_7)">
<path d="M192.295 90.9466L180.095 90.9466L180.095 88.6458L184.787 88.6458L184.787 73.5393L180.095 73.5393L180.095 71.4807C180.731 71.4807 181.412 71.4278 182.138 71.3218C182.865 71.2158 183.415 71.0619 183.788 70.8601C184.252 70.6078 184.618 70.2875 184.886 69.8989C185.153 69.5104 185.307 68.9882 185.347 68.3323L187.694 68.3323L187.694 88.6458L192.295 88.6458L192.295 90.9466Z" fill="#14a2b1" fill-rule="nonzero" opacity="1" stroke="none"/>
</g>
</g>
<g opacity="1">
<clipPath id="ClipPath_8">
<path d="M7.27399 59.9466L438.378 59.9466L438.378 59.9466L438.378 226.004L438.378 226.004L7.27399 226.004L7.27399 226.004L7.27399 59.9466L7.27399 59.9466Z"/>
</clipPath>
<g clip-path="url(#ClipPath_8)">
<path d="M208.613 67.3938L197.759 95.5481L195.141 95.5481L205.948 67.3938L208.613 67.3938Z" fill="#14a2b1" fill-rule="nonzero" opacity="1" stroke="none"/>
</g>
</g>
<g opacity="1">
<clipPath id="ClipPath_9">
<path d="M7.27399 59.9466L438.378 59.9466L438.378 59.9466L438.378 226.004L438.378 226.004L7.27399 226.004L7.27399 226.004L7.27399 59.9466L7.27399 59.9466Z"/>
</clipPath>
<g clip-path="url(#ClipPath_9)">
<path d="M225.384 80.0935C225.868 80.5274 226.267 81.0724 226.58 81.7283C226.893 82.3842 227.049 83.2319 227.049 84.2713C227.049 85.3006 226.862 86.2441 226.489 87.1018C226.116 87.9596 225.591 88.7063 224.915 89.3421C224.158 90.0484 223.267 90.5707 222.243 90.9087C221.219 91.2468 220.096 91.4158 218.875 91.4158C217.624 91.4158 216.393 91.2669 215.182 90.9693C213.971 90.6716 212.977 90.3461 212.2 89.9929L212.2 86.8294L212.427 86.8294C213.285 87.3945 214.294 87.8637 215.454 88.2371C216.615 88.6105 217.735 88.7971 218.815 88.7971C219.45 88.7971 220.127 88.6912 220.843 88.4793C221.559 88.2674 222.14 87.9545 222.584 87.5408C223.048 87.0968 223.394 86.6074 223.621 86.0725C223.848 85.5377 223.961 84.8616 223.961 84.0442C223.961 83.2369 223.832 82.5684 223.575 82.0386C223.318 81.5088 222.962 81.0925 222.508 80.7898C222.054 80.477 221.504 80.2625 220.858 80.1465C220.212 80.0305 219.516 79.9724 218.769 79.9724L217.407 79.9724L217.407 77.4597L218.467 77.4597C220 77.4597 221.224 77.1393 222.137 76.4986C223.05 75.8578 223.507 74.9218 223.507 73.6907C223.507 73.1458 223.391 72.669 223.159 72.2603C222.927 71.8516 222.604 71.516 222.19 71.2537C221.756 70.9913 221.292 70.8097 220.798 70.7088C220.303 70.6078 219.743 70.5574 219.117 70.5574C218.159 70.5574 217.14 70.7289 216.06 71.072C214.98 71.4151 213.961 71.8995 213.002 72.5252L212.851 72.5252L212.851 69.3616C213.567 69.0084 214.523 68.683 215.719 68.3853C216.915 68.0876 218.073 67.9387 219.193 67.9387C220.293 67.9387 221.262 68.0396 222.099 68.2415C222.937 68.4433 223.694 68.7662 224.37 69.2102C225.096 69.6946 225.646 70.2799 226.02 70.9661C226.393 71.6523 226.58 72.4545 226.58 73.3728C226.58 74.6241 226.138 75.7165 225.255 76.6499C224.372 77.5834 223.33 78.1712 222.13 78.4133L222.13 78.6253C222.614 78.706 223.169 78.875 223.795 79.1323C224.42 79.3897 224.95 79.7101 225.384 80.0935Z" fill="#14a2b1" fill-rule="nonzero" opacity="1" stroke="none"/>
</g>
</g>
<g opacity="1">
<clipPath id="ClipPath_10">
<path d="M7.27399 59.9466L438.378 59.9466L438.378 59.9466L438.378 226.004L438.378 226.004L7.27399 226.004L7.27399 226.004L7.27399 59.9466L7.27399 59.9466Z"/>
</clipPath>
<g clip-path="url(#ClipPath_10)">
<path d="M247.045 79.6697C247.045 83.7162 246.411 86.6856 245.145 88.5777C243.879 90.4697 241.913 91.4158 239.249 91.4158C236.545 91.4158 234.569 90.4571 233.323 88.5398C232.077 86.6225 231.454 83.6759 231.454 79.7C231.454 75.6938 232.085 72.7346 233.346 70.8223C234.607 68.91 236.575 67.9539 239.249 67.9539C241.954 67.9539 243.929 68.9251 245.175 70.8677C246.422 72.8102 247.045 75.7442 247.045 79.6697ZM243.064 86.5418C243.417 85.7244 243.657 84.7632 243.783 83.6582C243.909 82.5532 243.972 81.2237 243.972 79.6697C243.972 78.1358 243.909 76.8038 243.783 75.6736C243.657 74.5434 243.412 73.5847 243.049 72.7976C242.695 72.0206 242.214 71.4353 241.603 71.0418C240.992 70.6482 240.208 70.4514 239.249 70.4514C238.301 70.4514 237.516 70.6482 236.895 71.0418C236.275 71.4353 235.783 72.0307 235.42 72.8279C235.077 73.5746 234.842 74.5484 234.716 75.7493C234.59 76.9501 234.527 78.267 234.527 79.7C234.527 81.2742 234.582 82.5911 234.693 83.6507C234.804 84.7102 235.041 85.6588 235.405 86.4964C235.738 87.2835 236.209 87.8839 236.82 88.2976C237.43 88.7114 238.24 88.9182 239.249 88.9182C240.198 88.9182 240.985 88.7215 241.611 88.3279C242.236 87.9343 242.721 87.339 243.064 86.5418Z" fill="#14a2b1" fill-rule="nonzero" opacity="1" stroke="none"/>
</g>
</g>
<g opacity="1">
<clipPath id="ClipPath_11">
<path d="M7.27399 59.9466L438.378 59.9466L438.378 59.9466L438.378 226.004L438.378 226.004L7.27399 226.004L7.27399 226.004L7.27399 59.9466L7.27399 59.9466Z"/>
</clipPath>
<g clip-path="url(#ClipPath_11)">
<path d="M268.842 78.3528L265.224 78.3528L265.224 74.0388L268.842 74.0388L268.842 78.3528ZM268.842 90.9466L265.224 90.9466L265.224 86.6326L268.842 86.6326L268.842 90.9466Z" fill="#14a2b1" fill-rule="nonzero" opacity="1" stroke="none"/>
</g>
</g>
<g opacity="1">
<clipPath id="ClipPath_12">
<path d="M7.27399 59.9466L438.378 59.9466L438.378 59.9466L438.378 226.004L438.378 226.004L7.27399 226.004L7.27399 226.004L7.27399 59.9466L7.27399 59.9466Z"/>
</clipPath>
<g clip-path="url(#ClipPath_12)">
<path d="M302.839 90.9466L287.989 90.9466L287.989 68.408L302.839 68.408L302.839 71.072L290.987 71.072L290.987 77.2478L302.839 77.2478L302.839 79.9119L290.987 79.9119L290.987 88.2825L302.839 88.2825L302.839 90.9466Z" fill="#14a2b1" fill-rule="nonzero" opacity="1" stroke="none"/>
</g>
</g>
<g opacity="1">
<clipPath id="ClipPath_13">
<path d="M7.27399 59.9466L438.378 59.9466L438.378 59.9466L438.378 226.004L438.378 226.004L7.27399 226.004L7.27399 226.004L7.27399 59.9466L7.27399 59.9466Z"/>
</clipPath>
<g clip-path="url(#ClipPath_13)">
<path d="M321.078 90.9466L318.233 90.9466L318.233 89.1756C317.415 89.8819 316.563 90.4319 315.675 90.8255C314.787 91.219 313.823 91.4158 312.783 91.4158C310.765 91.4158 309.163 90.6388 307.978 89.0847C306.792 87.5307 306.199 85.3762 306.199 82.6214C306.199 81.1884 306.403 79.9119 306.812 78.7918C307.221 77.6716 307.773 76.718 308.469 75.9309C309.156 75.164 309.955 74.5787 310.869 74.1751C311.782 73.7714 312.728 73.5696 313.707 73.5696C314.595 73.5696 315.382 73.6629 316.068 73.8496C316.754 74.0363 317.476 74.3264 318.233 74.72L318.233 67.3938L321.078 67.3938L321.078 90.9466ZM318.233 86.784L318.233 77.0813C317.466 76.7382 316.78 76.5011 316.174 76.3699C315.569 76.2387 314.908 76.1731 314.191 76.1731C312.597 76.1731 311.356 76.7281 310.468 77.8382C309.579 78.9482 309.135 80.5224 309.135 82.5608C309.135 84.5689 309.479 86.0952 310.165 87.1397C310.851 88.1841 311.951 88.7063 313.465 88.7063C314.272 88.7063 315.089 88.5272 315.917 88.169C316.744 87.8107 317.516 87.3491 318.233 86.784Z" fill="#14a2b1" fill-rule="nonzero" opacity="1" stroke="none"/>
</g>
</g>
<g opacity="1">
<clipPath id="ClipPath_14">
<path d="M7.27399 59.9466L438.378 59.9466L438.378 59.9466L438.378 226.004L438.378 226.004L7.27399 226.004L7.27399 226.004L7.27399 59.9466L7.27399 59.9466Z"/>
</clipPath>
<g clip-path="url(#ClipPath_14)">
<path d="M329.737 71.2083L326.528 71.2083L326.528 68.2566L329.737 68.2566L329.737 71.2083ZM329.555 90.9466L326.709 90.9466L326.709 74.0388L329.555 74.0388L329.555 90.9466Z" fill="#14a2b1" fill-rule="nonzero" opacity="1" stroke="none"/>
</g>
</g>
<g opacity="1">
<clipPath id="ClipPath_15">
<path d="M7.27399 59.9466L438.378 59.9466L438.378 59.9466L438.378 226.004L438.378 226.004L7.27399 226.004L7.27399 226.004L7.27399 59.9466L7.27399 59.9466Z"/>
</clipPath>
<g clip-path="url(#ClipPath_15)">
<path d="M343.965 90.7952C343.43 90.9365 342.847 91.0525 342.217 91.1433C341.586 91.2341 341.023 91.2796 340.529 91.2796C338.803 91.2796 337.492 90.8154 336.593 89.887C335.695 88.9586 335.246 87.4702 335.246 85.4216L335.246 76.4304L333.324 76.4304L333.324 74.0388L335.246 74.0388L335.246 69.1799L338.092 69.1799L338.092 74.0388L343.965 74.0388L343.965 76.4304L338.092 76.4304L338.092 84.135C338.092 85.023 338.112 85.7168 338.153 86.2163C338.193 86.7158 338.334 87.1826 338.576 87.6165C338.798 88.0201 339.104 88.3153 339.492 88.502C339.881 88.6887 340.474 88.782 341.271 88.782C341.735 88.782 342.219 88.7139 342.724 88.5777C343.228 88.4414 343.592 88.3279 343.814 88.2371L343.965 88.2371L343.965 90.7952Z" fill="#14a2b1" fill-rule="nonzero" opacity="1" stroke="none"/>
</g>
</g>
<g opacity="1">
<clipPath id="ClipPath_16">
<path d="M7.27399 59.9466L438.378 59.9466L438.378 59.9466L438.378 226.004L438.378 226.004L7.27399 226.004L7.27399 226.004L7.27399 59.9466L7.27399 59.9466Z"/>
</clipPath>
<g clip-path="url(#ClipPath_16)">
<path d="M361.554 82.7879L349.096 82.7879C349.096 83.8272 349.253 84.7329 349.566 85.5049C349.878 86.2769 350.307 86.9101 350.852 87.4046C351.377 87.8889 352 88.2522 352.722 88.4944C353.443 88.7366 354.238 88.8577 355.106 88.8577C356.256 88.8577 357.414 88.6281 358.58 88.169C359.745 87.7098 360.575 87.2582 361.07 86.8142L361.221 86.8142L361.221 89.9173C360.262 90.3209 359.283 90.659 358.284 90.9314C357.285 91.2039 356.236 91.3401 355.136 91.3401C352.331 91.3401 350.141 90.5807 348.567 89.062C346.992 87.5433 346.205 85.3863 346.205 82.5911C346.205 79.8261 346.96 77.6313 348.468 76.0066C349.977 74.3819 351.962 73.5696 354.425 73.5696C356.705 73.5696 358.464 74.2356 359.7 75.5676C360.936 76.8997 361.554 78.7918 361.554 81.2439L361.554 82.7879ZM358.784 80.6082C358.774 79.1147 358.398 77.9592 357.656 77.1419C356.915 76.3245 355.787 75.9158 354.273 75.9158C352.749 75.9158 351.536 76.3648 350.633 77.263C349.73 78.1611 349.218 79.2761 349.096 80.6082L358.784 80.6082Z" fill="#14a2b1" fill-rule="nonzero" opacity="1" stroke="none"/>
</g>
</g>
<g opacity="1">
<clipPath id="ClipPath_17">
<path d="M7.27399 59.9466L438.378 59.9466L438.378 59.9466L438.378 226.004L438.378 226.004L7.27399 226.004L7.27399 226.004L7.27399 59.9466L7.27399 59.9466Z"/>
</clipPath>
<g clip-path="url(#ClipPath_17)">
<path d="M379.582 90.9466L376.736 90.9466L376.736 89.1756C375.919 89.8819 375.066 90.4319 374.178 90.8255C373.29 91.219 372.326 91.4158 371.287 91.4158C369.269 91.4158 367.667 90.6388 366.481 89.0847C365.295 87.5307 364.702 85.3762 364.702 82.6214C364.702 81.1884 364.907 79.9119 365.315 78.7918C365.724 77.6716 366.277 76.718 366.973 75.9309C367.659 75.164 368.459 74.5787 369.372 74.1751C370.285 73.7714 371.231 73.5696 372.21 73.5696C373.098 73.5696 373.885 73.6629 374.572 73.8496C375.258 74.0363 375.979 74.3264 376.736 74.72L376.736 67.3938L379.582 67.3938L379.582 90.9466ZM376.736 86.784L376.736 77.0813C375.969 76.7382 375.283 76.5011 374.677 76.3699C374.072 76.2387 373.411 76.1731 372.695 76.1731C371.1 76.1731 369.859 76.7281 368.971 77.8382C368.083 78.9482 367.639 80.5224 367.639 82.5608C367.639 84.5689 367.982 86.0952 368.668 87.1397C369.354 88.1841 370.454 88.7063 371.968 88.7063C372.775 88.7063 373.593 88.5272 374.42 88.169C375.248 87.8107 376.02 87.3491 376.736 86.784Z" fill="#14a2b1" fill-rule="nonzero" opacity="1" stroke="none"/>
</g>
</g>
<g opacity="1">
<clipPath id="ClipPath_18">
<path d="M7.27399 59.9466L438.378 59.9466L438.378 59.9466L438.378 226.004L438.378 226.004L7.27399 226.004L7.27399 226.004L7.27399 59.9466L7.27399 59.9466Z"/>
</clipPath>
<g clip-path="url(#ClipPath_18)">
<path d="M41.8967 108.996C42.815 110.005 43.5189 111.242 44.0083 112.705C44.4977 114.168 44.7424 115.828 44.7424 117.685C44.7424 119.542 44.4926 121.204 43.9931 122.672C43.4936 124.141 42.7948 125.364 41.8967 126.343C40.9683 127.362 39.8709 128.129 38.6045 128.644C37.338 129.158 35.8925 129.416 34.2678 129.416C32.6835 129.416 31.243 129.153 29.9463 128.629C28.6495 128.104 27.5471 127.342 26.6389 126.343C25.7307 125.344 25.0319 124.118 24.5425 122.665C24.053 121.212 23.8083 119.552 23.8083 117.685C23.8083 115.848 24.0505 114.201 24.5349 112.743C25.0193 111.285 25.7256 110.036 26.654 108.996C27.542 108.007 28.6445 107.251 29.9614 106.726C31.2783 106.201 32.7138 105.939 34.2678 105.939C35.8824 105.939 37.333 106.204 38.6196 106.733C39.9062 107.263 40.9986 108.018 41.8967 108.996ZM41.6242 117.685C41.6242 114.758 40.9683 112.501 39.6565 110.911C38.3446 109.322 36.5534 108.527 34.2829 108.527C31.9922 108.527 30.1935 109.322 28.8867 110.911C27.5799 112.501 26.9265 114.758 26.9265 117.685C26.9265 120.642 27.5925 122.904 28.9245 124.474C30.2566 126.043 32.0427 126.827 34.2829 126.827C36.5232 126.827 38.3068 126.043 39.6338 124.474C40.9607 122.904 41.6242 120.642 41.6242 117.685Z" fill="#14a2b1" fill-rule="nonzero" opacity="1" stroke="none"/>
</g>
</g>
<g opacity="1">
<clipPath id="ClipPath_19">
<path d="M7.27399 59.9466L438.378 59.9466L438.378 59.9466L438.378 226.004L438.378 226.004L7.27399 226.004L7.27399 226.004L7.27399 59.9466L7.27399 59.9466Z"/>
</clipPath>
<g clip-path="url(#ClipPath_19)">
<path d="M70.5354 112.039L66.1306 128.947L63.4968 128.947L59.1526 115.914L54.8386 128.947L52.2199 128.947L47.7697 112.039L50.7365 112.039L53.8396 125.132L58.0627 112.039L60.4089 112.039L64.738 125.132L67.6745 112.039L70.5354 112.039Z" fill="#14a2b1" fill-rule="nonzero" opacity="1" stroke="none"/>
</g>
</g>
<g opacity="1">
<clipPath id="ClipPath_20">
<path d="M7.27399 59.9466L438.378 59.9466L438.378 59.9466L438.378 226.004L438.378 226.004L7.27399 226.004L7.27399 226.004L7.27399 59.9466L7.27399 59.9466Z"/>
</clipPath>
<g clip-path="url(#ClipPath_20)">
<path d="M88.7751 128.947L85.9294 128.947L85.9294 119.32C85.9294 118.543 85.884 117.813 85.7932 117.132C85.7024 116.451 85.5359 115.919 85.2937 115.535C85.0414 115.112 84.6781 114.796 84.2038 114.589C83.7295 114.383 83.114 114.279 82.3571 114.279C81.5801 114.279 80.7678 114.471 79.9201 114.854C79.0725 115.238 78.2601 115.727 77.4831 116.323L77.4831 128.947L74.6374 128.947L74.6374 112.039L77.4831 112.039L77.4831 113.916C78.3711 113.179 79.2894 112.604 80.238 112.19C81.1866 111.776 82.1604 111.57 83.1594 111.57C84.9859 111.57 86.3785 112.12 87.3371 113.219C88.2958 114.319 88.7751 115.904 88.7751 117.972L88.7751 128.947Z" fill="#14a2b1" fill-rule="nonzero" opacity="1" stroke="none"/>
</g>
</g>
<g opacity="1">
<clipPath id="ClipPath_21">
<path d="M7.27399 59.9466L438.378 59.9466L438.378 59.9466L438.378 226.004L438.378 226.004L7.27399 226.004L7.27399 226.004L7.27399 59.9466L7.27399 59.9466Z"/>
</clipPath>
<g clip-path="url(#ClipPath_21)">
<path d="M108.407 120.788L95.9499 120.788C95.9499 121.827 96.1063 122.733 96.4192 123.505C96.732 124.277 97.1609 124.91 97.7058 125.405C98.2305 125.889 98.8536 126.252 99.5752 126.494C100.297 126.737 101.091 126.858 101.959 126.858C103.11 126.858 104.268 126.628 105.433 126.169C106.599 125.71 107.429 125.258 107.923 124.814L108.074 124.814L108.074 127.917C107.116 128.321 106.137 128.659 105.138 128.931C104.139 129.204 103.089 129.34 101.989 129.34C99.1841 129.34 96.9944 128.581 95.4201 127.062C93.8459 125.543 93.0588 123.386 93.0588 120.591C93.0588 117.826 93.8131 115.631 95.3217 114.007C96.8304 112.382 98.8158 111.57 101.278 111.57C103.559 111.57 105.317 112.236 106.553 113.568C107.789 114.9 108.407 116.792 108.407 119.244L108.407 120.788ZM105.637 118.608C105.627 117.115 105.251 115.959 104.51 115.142C103.768 114.324 102.64 113.916 101.127 113.916C99.6029 113.916 98.3895 114.365 97.4863 115.263C96.5831 116.161 96.071 117.276 95.9499 118.608L105.637 118.608Z" fill="#14a2b1" fill-rule="nonzero" opacity="1" stroke="none"/>
</g>
</g>
<g opacity="1">
<clipPath id="ClipPath_22">
<path d="M7.27399 59.9466L438.378 59.9466L438.378 59.9466L438.378 226.004L438.378 226.004L7.27399 226.004L7.27399 226.004L7.27399 59.9466L7.27399 59.9466Z"/>
</clipPath>
<g clip-path="url(#ClipPath_22)">
<path d="M123.272 115.142L123.12 115.142C122.697 115.041 122.285 114.968 121.887 114.922C121.488 114.877 121.016 114.854 120.471 114.854C119.593 114.854 118.746 115.049 117.928 115.437C117.111 115.826 116.324 116.328 115.567 116.943L115.567 128.947L112.721 128.947L112.721 112.039L115.567 112.039L115.567 114.536C116.697 113.628 117.694 112.985 118.557 112.606C119.419 112.228 120.3 112.039 121.198 112.039C121.692 112.039 122.051 112.051 122.273 112.077C122.495 112.102 122.828 112.15 123.272 112.22L123.272 115.142Z" fill="#14a2b1" fill-rule="nonzero" opacity="1" stroke="none"/>
</g>
</g>
<g opacity="1">
<clipPath id="ClipPath_23">
<path d="M7.27399 59.9466L438.378 59.9466L438.378 59.9466L438.378 226.004L438.378 226.004L7.27399 226.004L7.27399 226.004L7.27399 59.9466L7.27399 59.9466Z"/>
</clipPath>
<g clip-path="url(#ClipPath_23)">
<path d="M142.904 116.353L139.286 116.353L139.286 112.039L142.904 112.039L142.904 116.353ZM142.904 128.947L139.286 128.947L139.286 124.633L142.904 124.633L142.904 128.947Z" fill="#14a2b1" fill-rule="nonzero" opacity="1" stroke="none"/>
</g>
</g>
<g opacity="1">
<clipPath id="ClipPath_24">
<path d="M7.27399 59.9466L438.378 59.9466L438.378 59.9466L438.378 226.004L438.378 226.004L7.27399 226.004L7.27399 226.004L7.27399 59.9466L7.27399 59.9466Z"/>
</clipPath>
<g clip-path="url(#ClipPath_24)">
<path d="M178.43 122.513C178.43 123.391 178.226 124.259 177.817 125.117C177.408 125.975 176.836 126.701 176.099 127.297C175.292 127.942 174.351 128.447 173.276 128.81C172.201 129.174 170.907 129.355 169.393 129.355C167.769 129.355 166.308 129.204 165.011 128.901C163.714 128.598 162.395 128.149 161.053 127.554L161.053 123.8L161.265 123.8C162.405 124.749 163.722 125.48 165.216 125.995C166.709 126.51 168.112 126.767 169.424 126.767C171.28 126.767 172.726 126.419 173.76 125.722C174.795 125.026 175.312 124.098 175.312 122.937C175.312 121.938 175.067 121.202 174.578 120.727C174.088 120.253 173.344 119.885 172.345 119.622C171.588 119.421 170.768 119.254 169.885 119.123C169.002 118.992 168.066 118.825 167.077 118.623C165.079 118.199 163.598 117.475 162.635 116.451C161.671 115.427 161.189 114.092 161.189 112.448C161.189 110.56 161.986 109.014 163.581 107.808C165.175 106.602 167.198 105.999 169.651 105.999C171.235 105.999 172.688 106.151 174.01 106.453C175.332 106.756 176.502 107.129 177.522 107.574L177.522 111.115L177.31 111.115C176.452 110.389 175.324 109.786 173.927 109.307C172.529 108.827 171.099 108.588 169.635 108.588C168.031 108.588 166.742 108.921 165.768 109.587C164.794 110.253 164.307 111.11 164.307 112.16C164.307 113.098 164.55 113.835 165.034 114.37C165.518 114.905 166.371 115.313 167.592 115.596C168.238 115.737 169.156 115.909 170.347 116.111C171.538 116.312 172.547 116.519 173.374 116.731C175.049 117.175 176.311 117.846 177.158 118.744C178.006 119.643 178.43 120.899 178.43 122.513Z" fill="#14a2b1" fill-rule="nonzero" opacity="1" stroke="none"/>
</g>
</g>
<g opacity="1">
<clipPath id="ClipPath_25">
<path d="M7.27399 59.9466L438.378 59.9466L438.378 59.9466L438.378 226.004L438.378 226.004L7.27399 226.004L7.27399 226.004L7.27399 59.9466L7.27399 59.9466Z"/>
</clipPath>
<g clip-path="url(#ClipPath_25)">
<path d="M197.426 120.5C197.426 123.255 196.72 125.43 195.307 127.024C193.895 128.619 192.002 129.416 189.631 129.416C187.239 129.416 185.34 128.619 183.932 127.024C182.524 125.43 181.821 123.255 181.821 120.5C181.821 117.745 182.524 115.568 183.932 113.969C185.34 112.369 187.239 111.57 189.631 111.57C192.002 111.57 193.895 112.369 195.307 113.969C196.72 115.568 197.426 117.745 197.426 120.5ZM194.49 120.5C194.49 118.31 194.061 116.683 193.203 115.619C192.346 114.554 191.155 114.022 189.631 114.022C188.087 114.022 186.889 114.554 186.036 115.619C185.183 116.683 184.757 118.31 184.757 120.5C184.757 122.619 185.186 124.226 186.044 125.321C186.901 126.416 188.097 126.964 189.631 126.964C191.145 126.964 192.333 126.421 193.196 125.336C194.059 124.252 194.49 122.64 194.49 120.5Z" fill="#14a2b1" fill-rule="nonzero" opacity="1" stroke="none"/>
</g>
</g>
<g opacity="1">
<clipPath id="ClipPath_26">
<path d="M7.27399 59.9466L438.378 59.9466L438.378 59.9466L438.378 226.004L438.378 226.004L7.27399 226.004L7.27399 226.004L7.27399 59.9466L7.27399 59.9466Z"/>
</clipPath>
<g clip-path="url(#ClipPath_26)">
<path d="M210.611 128.795C210.076 128.936 209.493 129.053 208.862 129.143C208.232 129.234 207.669 129.28 207.175 129.28C205.449 129.28 204.137 128.815 203.239 127.887C202.341 126.959 201.892 125.47 201.892 123.422L201.892 114.43L199.969 114.43L199.969 112.039L201.892 112.039L201.892 107.18L204.738 107.18L204.738 112.039L210.611 112.039L210.611 114.43L204.738 114.43L204.738 122.135C204.738 123.023 204.758 123.717 204.798 124.216C204.838 124.716 204.98 125.183 205.222 125.616C205.444 126.02 205.749 126.315 206.138 126.502C206.526 126.689 207.119 126.782 207.916 126.782C208.38 126.782 208.865 126.714 209.369 126.578C209.874 126.441 210.237 126.328 210.459 126.237L210.611 126.237L210.611 128.795Z" fill="#14a2b1" fill-rule="nonzero" opacity="1" stroke="none"/>
</g>
</g>
<g opacity="1">
<clipPath id="ClipPath_27">
<path d="M7.27399 59.9466L438.378 59.9466L438.378 59.9466L438.378 226.004L438.378 226.004L7.27399 226.004L7.27399 226.004L7.27399 59.9466L7.27399 59.9466Z"/>
</clipPath>
<g clip-path="url(#ClipPath_27)">
<path d="M227.185 128.947L224.355 128.947L224.355 127.145C224.102 127.317 223.762 127.556 223.333 127.864C222.904 128.172 222.488 128.417 222.084 128.598C221.61 128.831 221.065 129.025 220.449 129.181C219.834 129.338 219.112 129.416 218.285 129.416C216.761 129.416 215.469 128.911 214.41 127.902C213.35 126.893 212.821 125.606 212.821 124.042C212.821 122.761 213.096 121.724 213.645 120.932C214.195 120.14 214.98 119.516 215.999 119.062C217.029 118.608 218.265 118.3 219.708 118.139C221.151 117.977 222.7 117.856 224.355 117.776L224.355 117.337C224.355 116.691 224.241 116.156 224.014 115.732C223.787 115.308 223.462 114.975 223.038 114.733C222.634 114.501 222.15 114.345 221.585 114.264C221.02 114.183 220.429 114.143 219.814 114.143C219.067 114.143 218.234 114.241 217.316 114.438C216.398 114.635 215.449 114.92 214.47 115.293L214.319 115.293L214.319 112.402C214.874 112.251 215.676 112.084 216.726 111.903C217.775 111.721 218.81 111.63 219.829 111.63C221.02 111.63 222.056 111.729 222.939 111.925C223.822 112.122 224.587 112.458 225.233 112.932C225.868 113.396 226.353 113.997 226.686 114.733C227.019 115.47 227.185 116.383 227.185 117.473L227.185 128.947ZM224.355 124.784L224.355 120.076C223.487 120.127 222.465 120.203 221.29 120.303C220.114 120.404 219.183 120.551 218.497 120.742C217.679 120.975 217.018 121.335 216.514 121.825C216.009 122.314 215.757 122.988 215.757 123.845C215.757 124.814 216.05 125.543 216.635 126.033C217.22 126.522 218.113 126.767 219.314 126.767C220.313 126.767 221.226 126.573 222.054 126.184C222.881 125.796 223.648 125.329 224.355 124.784Z" fill="#14a2b1" fill-rule="nonzero" opacity="1" stroke="none"/>
</g>
</g>
<g opacity="1">
<clipPath id="ClipPath_28">
<path d="M7.27399 59.9466L438.378 59.9466L438.378 59.9466L438.378 226.004L438.378 226.004L7.27399 226.004L7.27399 226.004L7.27399 59.9466L7.27399 59.9466Z"/>
</clipPath>
<g clip-path="url(#ClipPath_28)">
<path d="M243.215 115.142L243.064 115.142C242.64 115.041 242.229 114.968 241.83 114.922C241.431 114.877 240.96 114.854 240.415 114.854C239.537 114.854 238.689 115.049 237.872 115.437C237.054 115.826 236.267 116.328 235.51 116.943L235.51 128.947L232.665 128.947L232.665 112.039L235.51 112.039L235.51 114.536C236.641 113.628 237.637 112.985 238.5 112.606C239.363 112.228 240.243 112.039 241.141 112.039C241.636 112.039 241.994 112.051 242.216 112.077C242.438 112.102 242.771 112.15 243.215 112.22L243.215 115.142Z" fill="#14a2b1" fill-rule="nonzero" opacity="1" stroke="none"/>
</g>
</g>
<g opacity="1">
<clipPath id="ClipPath_29">
<path d="M7.27399 59.9466L438.378 59.9466L438.378 59.9466L438.378 226.004L438.378 226.004L7.27399 226.004L7.27399 226.004L7.27399 59.9466L7.27399 59.9466Z"/>
</clipPath>
<g clip-path="url(#ClipPath_29)">
<path d="M260.304 120.5C260.304 123.255 259.598 125.43 258.185 127.024C256.773 128.619 254.88 129.416 252.509 129.416C250.117 129.416 248.218 128.619 246.81 127.024C245.402 125.43 244.698 123.255 244.698 120.5C244.698 117.745 245.402 115.568 246.81 113.969C248.218 112.369 250.117 111.57 252.509 111.57C254.88 111.57 256.773 112.369 258.185 113.969C259.598 115.568 260.304 117.745 260.304 120.5ZM257.368 120.5C257.368 118.31 256.939 116.683 256.081 115.619C255.224 114.554 254.033 114.022 252.509 114.022C250.965 114.022 249.767 114.554 248.914 115.619C248.061 116.683 247.635 118.31 247.635 120.5C247.635 122.619 248.064 124.226 248.922 125.321C249.779 126.416 250.975 126.964 252.509 126.964C254.023 126.964 255.211 126.421 256.074 125.336C256.936 124.252 257.368 122.64 257.368 120.5Z" fill="#14a2b1" fill-rule="nonzero" opacity="1" stroke="none"/>
</g>
</g>
<g opacity="1">
<clipPath id="ClipPath_30">
<path d="M7.27399 59.9466L438.378 59.9466L438.378 59.9466L438.378 226.004L438.378 226.004L7.27399 226.004L7.27399 226.004L7.27399 59.9466L7.27399 59.9466Z"/>
</clipPath>
<g clip-path="url(#ClipPath_30)">
<path d="M290.23 109.072L278.832 109.072L278.832 115.429L288.625 115.429L288.625 118.094L278.832 118.094L278.832 128.947L275.835 128.947L275.835 106.408L290.23 106.408L290.23 109.072Z" fill="#14a2b1" fill-rule="nonzero" opacity="1" stroke="none"/>
</g>
</g>
<g opacity="1">
<clipPath id="ClipPath_31">
<path d="M7.27399 59.9466L438.378 59.9466L438.378 59.9466L438.378 226.004L438.378 226.004L7.27399 226.004L7.27399 226.004L7.27399 59.9466L7.27399 59.9466Z"/>
</clipPath>
<g clip-path="url(#ClipPath_31)">
<path d="M307.44 128.947L304.594 128.947L304.594 127.07C303.636 127.826 302.718 128.407 301.84 128.81C300.962 129.214 299.993 129.416 298.933 129.416C297.157 129.416 295.775 128.873 294.786 127.789C293.797 126.704 293.302 125.112 293.302 123.013L293.302 112.039L296.148 112.039L296.148 121.666C296.148 122.524 296.189 123.258 296.269 123.868C296.35 124.479 296.522 125.001 296.784 125.435C297.056 125.879 297.41 126.202 297.843 126.404C298.277 126.605 298.908 126.706 299.736 126.706C300.472 126.706 301.277 126.515 302.15 126.131C303.023 125.748 303.838 125.258 304.594 124.663L304.594 112.039L307.44 112.039L307.44 128.947Z" fill="#14a2b1" fill-rule="nonzero" opacity="1" stroke="none"/>
</g>
</g>
<g opacity="1">
<clipPath id="ClipPath_32">
<path d="M7.27399 59.9466L438.378 59.9466L438.378 59.9466L438.378 226.004L438.378 226.004L7.27399 226.004L7.27399 226.004L7.27399 59.9466L7.27399 59.9466Z"/>
</clipPath>
<g clip-path="url(#ClipPath_32)">
<path d="M323.591 115.142L323.44 115.142C323.016 115.041 322.605 114.968 322.206 114.922C321.807 114.877 321.336 114.854 320.791 114.854C319.913 114.854 319.065 115.049 318.248 115.437C317.43 115.826 316.643 116.328 315.886 116.943L315.886 128.947L313.041 128.947L313.041 112.039L315.886 112.039L315.886 114.536C317.017 113.628 318.013 112.985 318.876 112.606C319.739 112.228 320.619 112.039 321.517 112.039C322.012 112.039 322.37 112.051 322.592 112.077C322.814 112.102 323.147 112.15 323.591 112.22L323.591 115.142Z" fill="#14a2b1" fill-rule="nonzero" opacity="1" stroke="none"/>
</g>
</g>
<g opacity="1">
<clipPath id="ClipPath_33">
<path d="M7.27399 59.9466L438.378 59.9466L438.378 59.9466L438.378 226.004L438.378 226.004L7.27399 226.004L7.27399 226.004L7.27399 59.9466L7.27399 59.9466Z"/>
</clipPath>
<g clip-path="url(#ClipPath_33)">
<path d="M340.287 128.947L337.441 128.947L337.441 127.07C336.482 127.826 335.564 128.407 334.686 128.81C333.808 129.214 332.84 129.416 331.78 129.416C330.004 129.416 328.621 128.873 327.633 127.789C326.644 126.704 326.149 125.112 326.149 123.013L326.149 112.039L328.995 112.039L328.995 121.666C328.995 122.524 329.035 123.258 329.116 123.868C329.197 124.479 329.368 125.001 329.631 125.435C329.903 125.879 330.256 126.202 330.69 126.404C331.124 126.605 331.755 126.706 332.582 126.706C333.319 126.706 334.124 126.515 334.997 126.131C335.869 125.748 336.684 125.258 337.441 124.663L337.441 112.039L340.287 112.039L340.287 128.947Z" fill="#14a2b1" fill-rule="nonzero" opacity="1" stroke="none"/>
</g>
</g>
<g opacity="1">
<clipPath id="ClipPath_34">
<path d="M7.27399 59.9466L438.378 59.9466L438.378 59.9466L438.378 226.004L438.378 226.004L7.27399 226.004L7.27399 226.004L7.27399 59.9466L7.27399 59.9466Z"/>
</clipPath>
<g clip-path="url(#ClipPath_34)">
<path d="M361.236 128.947L357.482 128.947L350.701 121.545L348.854 123.301L348.854 128.947L346.009 128.947L346.009 105.394L348.854 105.394L348.854 120.5L357.073 112.039L360.661 112.039L352.805 119.849L361.236 128.947Z" fill="#14a2b1" fill-rule="nonzero" opacity="1" stroke="none"/>
</g>
</g>
<g opacity="1">
<clipPath id="ClipPath_35">
<path d="M7.27399 59.9466L438.378 59.9466L438.378 59.9466L438.378 226.004L438.378 226.004L7.27399 226.004L7.27399 226.004L7.27399 59.9466L7.27399 59.9466Z"/>
</clipPath>
<g clip-path="url(#ClipPath_35)">
<path d="M377.372 128.947L374.541 128.947L374.541 127.145C374.289 127.317 373.948 127.556 373.52 127.864C373.091 128.172 372.674 128.417 372.271 128.598C371.796 128.831 371.252 129.025 370.636 129.181C370.02 129.338 369.299 129.416 368.471 129.416C366.948 129.416 365.656 128.911 364.596 127.902C363.537 126.893 363.007 125.606 363.007 124.042C363.007 122.761 363.282 121.724 363.832 120.932C364.382 120.14 365.167 119.516 366.186 119.062C367.215 118.608 368.451 118.3 369.894 118.139C371.337 117.977 372.886 117.856 374.541 117.776L374.541 117.337C374.541 116.691 374.428 116.156 374.201 115.732C373.974 115.308 373.648 114.975 373.224 114.733C372.821 114.501 372.336 114.345 371.771 114.264C371.206 114.183 370.616 114.143 370 114.143C369.253 114.143 368.421 114.241 367.503 114.438C366.584 114.635 365.636 114.92 364.657 115.293L364.506 115.293L364.506 112.402C365.061 112.251 365.863 112.084 366.912 111.903C367.962 111.721 368.996 111.63 370.015 111.63C371.206 111.63 372.243 111.729 373.126 111.925C374.009 112.122 374.773 112.458 375.419 112.932C376.055 113.396 376.539 113.997 376.872 114.733C377.205 115.47 377.372 116.383 377.372 117.473L377.372 128.947ZM374.541 124.784L374.541 120.076C373.673 120.127 372.652 120.203 371.476 120.303C370.3 120.404 369.37 120.551 368.683 120.742C367.866 120.975 367.205 121.335 366.7 121.825C366.196 122.314 365.944 122.988 365.944 123.845C365.944 124.814 366.236 125.543 366.822 126.033C367.407 126.522 368.3 126.767 369.501 126.767C370.5 126.767 371.413 126.573 372.24 126.184C373.068 125.796 373.835 125.329 374.541 124.784Z" fill="#14a2b1" fill-rule="nonzero" opacity="1" stroke="none"/>
</g>
</g>
<g opacity="1">
<clipPath id="ClipPath_36">
<path d="M7.27399 59.9466L438.378 59.9466L438.378 59.9466L438.378 226.004L438.378 226.004L7.27399 226.004L7.27399 226.004L7.27399 59.9466L7.27399 59.9466Z"/>
</clipPath>
<g clip-path="url(#ClipPath_36)">
<path d="M403.967 112.039L399.562 128.947L396.928 128.947L392.584 115.914L388.27 128.947L385.652 128.947L381.201 112.039L384.168 112.039L387.271 125.132L391.494 112.039L393.841 112.039L398.17 125.132L401.106 112.039L403.967 112.039Z" fill="#14a2b1" fill-rule="nonzero" opacity="1" stroke="none"/>
</g>
</g>
<g opacity="1">
<clipPath id="ClipPath_37">
<path d="M7.27399 59.9466L438.378 59.9466L438.378 59.9466L438.378 226.004L438.378 226.004L7.27399 226.004L7.27399 226.004L7.27399 59.9466L7.27399 59.9466Z"/>
</clipPath>
<g clip-path="url(#ClipPath_37)">
<path d="M420.905 128.947L418.074 128.947L418.074 127.145C417.822 127.317 417.482 127.556 417.053 127.864C416.624 128.172 416.208 128.417 415.804 128.598C415.33 128.831 414.785 129.025 414.169 129.181C413.554 129.338 412.832 129.416 412.005 129.416C410.481 129.416 409.189 128.911 408.13 127.902C407.07 126.893 406.54 125.606 406.54 124.042C406.54 122.761 406.815 121.724 407.365 120.932C407.915 120.14 408.7 119.516 409.719 119.062C410.748 118.608 411.984 118.3 413.427 118.139C414.87 117.977 416.419 117.856 418.074 117.776L418.074 117.337C418.074 116.691 417.961 116.156 417.734 115.732C417.507 115.308 417.181 114.975 416.758 114.733C416.354 114.501 415.87 114.345 415.304 114.264C414.739 114.183 414.149 114.143 413.533 114.143C412.787 114.143 411.954 114.241 411.036 114.438C410.118 114.635 409.169 114.92 408.19 115.293L408.039 115.293L408.039 112.402C408.594 112.251 409.396 112.084 410.446 111.903C411.495 111.721 412.529 111.63 413.549 111.63C414.739 111.63 415.776 111.729 416.659 111.925C417.542 112.122 418.307 112.458 418.952 112.932C419.588 113.396 420.072 113.997 420.405 114.733C420.738 115.47 420.905 116.383 420.905 117.473L420.905 128.947ZM418.074 124.784L418.074 120.076C417.207 120.127 416.185 120.203 415.009 120.303C413.834 120.404 412.903 120.551 412.217 120.742C411.399 120.975 410.738 121.335 410.234 121.825C409.729 122.314 409.477 122.988 409.477 123.845C409.477 124.814 409.769 125.543 410.355 126.033C410.94 126.522 411.833 126.767 413.034 126.767C414.033 126.767 414.946 126.573 415.774 126.184C416.601 125.796 417.368 125.329 418.074 124.784Z" fill="#14a2b1" fill-rule="nonzero" opacity="1" stroke="none"/>
</g>
</g>
</g>
</g>
</svg>
