<?xml version="1.0" encoding="UTF-8" standalone="no"?>
<!DOCTYPE svg PUBLIC "-//W3C//DTD SVG 1.1//EN" "http://www.w3.org/Graphics/SVG/1.1/DTD/svg11.dtd">
<!-- Created with Vectornator (http://vectornator.io/) -->
<svg height="1024.0px" stroke-miterlimit="10" style="fill-rule:nonzero;clip-rule:evenodd;stroke-linecap:round;stroke-linejoin:round;" version="1.1" viewBox="0 0 1024 1024" width="1024.0px" xml:space="preserve" xmlns="http://www.w3.org/2000/svg" xmlns:xlink="http://www.w3.org/1999/xlink">
<defs>
<filter color-interpolation-filters="sRGB" filterUnits="userSpaceOnUse" height="513.171" id="Filter" width="869.407" x="79.9768" y="100.322">
<feDropShadow dx="-3.25799e-05" dy="9" flood-color="#0a8794" flood-opacity="1" in="SourceGraphic" result="Shadow" stdDeviation="4.5"/>
</filter>
</defs>
<g id="レイヤー-1">
<g fill="#000000" filter="url(#Filter)" stroke="#ffffff" stroke-linecap="butt" stroke-linejoin="miter" stroke-width="0.525">
<path d="M147.475 168.237C151.495 169.268 154.923 171.213 157.757 174.074C160.592 176.934 164.122 182.642 168.348 191.197L184.042 222.739L167.266 222.739L153.505 193.594C149.537 185.296 145.968 179.949 142.798 177.553C139.629 175.156 135.493 173.958 130.39 173.958L115.47 173.958L115.47 222.739L99.7763 222.739L99.7763 107.318L131.936 107.318C144.615 107.318 154.33 110.179 161.081 115.9C167.833 121.62 171.209 129.892 171.209 140.715C171.209 148.343 169.134 154.566 164.986 159.385C160.837 164.204 155 167.155 147.475 168.237ZM115.47 120.152L115.47 161.125L132.555 161.125C140.028 161.125 145.594 159.45 149.253 156.1C152.913 152.75 154.742 147.622 154.742 140.715C154.742 134.067 152.797 128.977 148.905 125.447C145.014 121.917 139.358 120.152 131.936 120.152L115.47 120.152Z"/>
<path d="M199.117 189.961L199.117 136.309L213.342 136.309L213.342 189.961C213.342 197.743 214.72 203.464 217.478 207.123C220.235 210.782 224.5 212.612 230.272 212.612C236.972 212.612 242.1 210.254 245.656 205.538C249.212 200.822 250.991 194.058 250.991 185.245L250.991 136.309L265.292 136.309L265.292 222.739L250.991 222.739L250.991 209.751C248.465 214.751 245.025 218.539 240.67 221.116C236.315 223.693 231.225 224.981 225.402 224.981C216.537 224.981 209.94 222.082 205.611 216.284C201.282 210.486 199.117 201.711 199.117 189.961Z"/>
<path d="M357.598 111.261L357.598 127.109C352.857 124.068 348.102 121.775 343.335 120.229C338.567 118.683 333.761 117.91 328.917 117.91C321.547 117.91 315.723 119.623 311.445 123.051C307.168 126.478 305.029 131.103 305.029 136.927C305.029 142.03 306.433 145.921 309.242 148.601C312.051 151.281 317.295 153.523 324.974 155.327L333.169 157.182C343.992 159.707 351.877 163.676 356.825 169.087C361.773 174.499 364.247 181.869 364.247 191.197C364.247 202.175 360.845 210.55 354.042 216.322C347.239 222.095 337.343 224.981 324.356 224.981C318.944 224.981 313.507 224.401 308.044 223.242C302.581 222.082 297.092 220.342 291.577 218.023L291.577 201.402C297.504 205.164 303.109 207.922 308.392 209.674C313.674 211.426 318.996 212.302 324.356 212.302C332.241 212.302 338.374 210.537 342.755 207.007C347.136 203.476 349.326 198.542 349.326 192.202C349.326 186.43 347.819 182.024 344.804 178.983C341.789 175.942 336.545 173.597 329.071 171.948L320.722 170.015C310.002 167.593 302.22 163.934 297.375 159.037C292.531 154.141 290.108 147.57 290.108 139.324C290.108 129.016 293.574 120.757 300.506 114.547C307.438 108.336 316.651 105.231 328.144 105.231C332.576 105.231 337.24 105.734 342.137 106.739C347.033 107.744 352.187 109.251 357.598 111.261Z"/>
<path d="M374.683 136.154L388.753 136.154L403.828 206.118L416.197 161.434L428.335 161.434L440.859 206.118L455.934 136.154L470.004 136.154L449.749 222.739L436.143 222.739L422.305 175.272L408.544 222.739L394.938 222.739L374.683 136.154Z"/>
<path d="M494.433 136.463L530.845 136.463L530.845 211.684L559.062 211.684L559.062 222.739L488.403 222.739L488.403 211.684L516.62 211.684L516.62 147.518L494.433 147.518L494.433 136.463ZM516.62 102.835L530.845 102.835L530.845 120.77L516.62 120.77L516.62 102.835Z"/>
<path d="M612.791 111.57L612.791 136.154L645.106 136.154L645.106 147.209L612.791 147.209L612.791 194.212C612.791 200.603 614.002 205.061 616.425 207.587C618.847 210.112 623.073 211.375 629.103 211.375L645.106 211.375L645.106 222.739L627.712 222.739C617.043 222.739 609.519 220.6 605.138 216.322C600.757 212.045 598.567 204.675 598.567 194.212L598.567 147.209L575.452 147.209L575.452 136.154L598.567 136.154L598.567 111.57L612.791 111.57Z"/>
<path d="M685.074 136.463L721.486 136.463L721.486 211.684L749.704 211.684L749.704 222.739L679.044 222.739L679.044 211.684L707.262 211.684L707.262 147.518L685.074 147.518L685.074 136.463ZM707.262 102.835L721.486 102.835L721.486 120.77L707.262 120.77L707.262 102.835Z"/>
<path d="M763.696 136.154L778.462 136.154L803.587 208.824L828.79 136.154L843.555 136.154L812.787 222.739L794.465 222.739L763.696 136.154Z"/>
<path d="M937.871 172.334L937.871 179.292L876.257 179.292L876.257 179.756C875.844 191.558 878.099 200.036 883.021 205.19C887.943 210.344 894.888 212.921 903.855 212.921C908.391 212.921 913.132 212.199 918.08 210.756C923.028 209.313 928.311 207.123 933.928 204.185L933.928 218.332C928.517 220.549 923.298 222.211 918.273 223.319C913.248 224.427 908.391 224.981 903.701 224.981C890.249 224.981 879.735 220.948 872.159 212.882C864.583 204.816 860.795 193.697 860.795 179.524C860.795 165.712 864.506 154.682 871.927 146.436C879.349 138.19 889.244 134.067 901.614 134.067C912.643 134.067 921.34 137.803 927.705 145.277C934.07 152.75 937.459 161.769 937.871 172.334ZM923.646 168.16C923.028 162.181 920.85 157.014 917.114 152.659C913.377 148.304 908.004 146.127 900.995 146.127C894.14 146.127 888.497 148.395 884.065 152.93C879.632 157.465 877.21 162.568 876.798 168.237L923.646 168.16Z"/>
<path d="M136.343 305.079L119.876 364.142L152.81 364.142L136.343 305.079ZM126.911 291.318L145.852 291.318L181.182 406.739L165.024 406.739L156.52 376.666L116.088 376.666L107.739 406.739L91.5817 406.739L126.911 291.318Z"/>
<path d="M231.509 295.57L231.509 320.154L263.824 320.154L263.824 331.209L231.509 331.209L231.509 378.212C231.509 384.603 232.72 389.061 235.142 391.587C237.565 394.112 241.791 395.375 247.821 395.375L263.824 395.375L263.824 406.739L246.429 406.739C235.761 406.739 228.236 404.6 223.855 400.322C219.475 396.045 217.284 388.675 217.284 378.212L217.284 331.209L194.169 331.209L194.169 320.154L217.284 320.154L217.284 295.57L231.509 295.57Z"/>
<path d="M362.314 402.642C358.345 404.755 354.274 406.34 350.099 407.396C345.925 408.453 341.492 408.981 336.802 408.981C322.011 408.981 310.53 403.75 302.362 393.287C294.193 382.825 290.108 368.111 290.108 349.145C290.108 330.282 294.219 315.58 302.439 305.041C310.659 294.501 322.114 289.231 336.802 289.231C341.492 289.231 345.925 289.759 350.099 290.816C354.274 291.872 358.345 293.457 362.314 295.57L362.314 311.573C358.5 308.429 354.403 306.033 350.022 304.383C345.641 302.734 341.235 301.91 336.802 301.91C326.649 301.91 319.047 305.827 313.996 313.66C308.946 321.494 306.42 333.322 306.42 349.145C306.42 364.915 308.946 376.718 313.996 384.552C319.047 392.386 326.649 396.302 336.802 396.302C341.338 396.302 345.783 395.478 350.138 393.829C354.493 392.179 358.552 389.783 362.314 386.639L362.314 402.642Z"/>
<path d="M422.305 330.127C415.089 330.127 409.626 332.936 405.915 338.554C402.205 344.171 400.349 352.495 400.349 363.524C400.349 374.502 402.205 382.812 405.915 388.456C409.626 394.099 415.089 396.921 422.305 396.921C429.572 396.921 435.061 394.099 438.771 388.456C442.482 382.812 444.338 374.502 444.338 363.524C444.338 352.495 442.482 344.171 438.771 338.554C435.061 332.936 429.572 330.127 422.305 330.127ZM422.305 318.067C434.313 318.067 443.5 321.958 449.865 329.74C456.23 337.523 459.413 348.784 459.413 363.524C459.413 378.316 456.243 389.59 449.904 397.346C443.564 405.103 434.365 408.981 422.305 408.981C410.296 408.981 401.122 405.103 394.783 397.346C388.444 389.59 385.274 378.316 385.274 363.524C385.274 348.784 388.444 337.523 394.783 329.74C401.122 321.958 410.296 318.067 422.305 318.067Z"/>
<path d="M536.334 331.209L536.334 286.448L550.559 286.448L550.559 406.739L536.334 406.739L536.334 395.839C533.963 400.116 530.806 403.376 526.864 405.618C522.921 407.86 518.373 408.981 513.219 408.981C502.756 408.981 494.523 404.922 488.519 396.805C482.515 388.688 479.513 377.491 479.513 363.215C479.513 349.145 482.528 338.103 488.558 330.088C494.588 322.074 502.808 318.067 513.219 318.067C518.424 318.067 523.011 319.188 526.98 321.43C530.948 323.672 534.066 326.932 536.334 331.209ZM494.51 363.524C494.51 374.553 496.263 382.877 499.767 388.494C503.272 394.112 508.451 396.921 515.306 396.921C522.161 396.921 527.379 394.086 530.961 388.417C534.543 382.748 536.334 374.45 536.334 363.524C536.334 352.546 534.543 344.236 530.961 338.592C527.379 332.949 522.161 330.127 515.306 330.127C508.451 330.127 503.272 332.936 499.767 338.554C496.263 344.171 494.51 352.495 494.51 363.524Z"/>
<path d="M651.909 356.334L651.909 363.292L590.295 363.292L590.295 363.756C589.882 375.558 592.137 384.036 597.059 389.19C601.981 394.344 608.926 396.921 617.894 396.921C622.429 396.921 627.171 396.199 632.118 394.756C637.066 393.313 642.349 391.123 647.966 388.185L647.966 402.332C642.555 404.549 637.337 406.211 632.312 407.319C627.287 408.427 622.429 408.981 617.739 408.981C604.287 408.981 593.774 404.948 586.197 396.882C578.621 388.816 574.833 377.697 574.833 363.524C574.833 349.712 578.544 338.682 585.966 330.436C593.387 322.19 603.282 318.067 615.652 318.067C626.681 318.067 635.378 321.803 641.743 329.277C648.108 336.75 651.497 345.769 651.909 356.334ZM637.684 352.16C637.066 346.181 634.889 341.014 631.152 336.659C627.415 332.304 622.043 330.127 615.033 330.127C608.179 330.127 602.535 332.395 598.103 336.93C593.671 341.465 591.248 346.568 590.836 352.237L637.684 352.16Z"/>
<path d="M749.935 338.012C746.895 335.642 743.802 333.915 740.659 332.833C737.515 331.75 734.062 331.209 730.299 331.209C721.435 331.209 714.657 333.992 709.967 339.559C705.277 345.125 702.932 353.165 702.932 363.679L702.932 406.739L688.63 406.739L688.63 320.154L702.932 320.154L702.932 337.085C705.303 330.952 708.949 326.249 713.871 322.976C718.793 319.703 724.63 318.067 731.382 318.067C734.886 318.067 738.159 318.505 741.2 319.381C744.24 320.257 747.152 321.623 749.935 323.478L749.935 338.012Z"/>
<path d="M166.957 479.261L166.957 495.109C162.215 492.068 157.461 489.775 152.694 488.229C147.926 486.683 143.12 485.91 138.276 485.91C130.906 485.91 125.082 487.623 120.804 491.051C116.526 494.478 114.388 499.103 114.388 504.927C114.388 510.03 115.792 513.921 118.601 516.601C121.41 519.281 126.654 521.523 134.333 523.327L142.528 525.182C153.351 527.707 161.236 531.676 166.184 537.087C171.132 542.499 173.605 549.869 173.605 559.197C173.605 570.175 170.204 578.55 163.401 584.322C156.598 590.095 146.702 592.981 133.715 592.981C128.303 592.981 122.866 592.401 117.403 591.242C111.939 590.082 106.451 588.342 100.936 586.023L100.936 569.402C106.863 573.164 112.468 575.922 117.75 577.674C123.033 579.426 128.354 580.302 133.715 580.302C141.6 580.302 147.733 578.537 152.114 575.007C156.495 571.476 158.685 566.542 158.685 560.202C158.685 554.43 157.177 550.024 154.162 546.983C151.147 543.942 145.903 541.597 138.43 539.948L130.081 538.015C119.361 535.593 111.579 531.934 106.734 527.037C101.889 522.141 99.4671 515.57 99.4671 507.324C99.4671 497.016 102.933 488.757 109.865 482.547C116.797 476.336 126.009 473.231 137.503 473.231C141.935 473.231 146.599 473.734 151.495 474.739C156.391 475.744 161.545 477.251 166.957 479.261Z"/>
<path d="M231.509 479.57L231.509 504.154L263.824 504.154L263.824 515.209L231.509 515.209L231.509 562.212C231.509 568.603 232.72 573.061 235.142 575.587C237.565 578.112 241.791 579.375 247.821 579.375L263.824 579.375L263.824 590.739L246.429 590.739C235.761 590.739 228.236 588.6 223.855 584.322C219.475 580.045 217.284 572.675 217.284 562.212L217.284 515.209L194.169 515.209L194.169 504.154L217.284 504.154L217.284 479.57L231.509 479.57Z"/>
<path d="M333.633 547.215L328.917 547.215C320.619 547.215 314.37 548.671 310.17 551.583C305.969 554.495 303.869 558.837 303.869 564.609C303.869 569.814 305.441 573.86 308.585 576.746C311.729 579.632 316.084 581.076 321.65 581.076C329.484 581.076 335.643 578.357 340.126 572.92C344.61 567.482 346.878 559.971 346.93 550.384L346.93 547.215L333.633 547.215ZM361.232 541.339L361.232 590.739L346.93 590.739L346.93 577.906C343.889 583.06 340.062 586.861 335.449 589.309C330.837 591.757 325.232 592.981 318.635 592.981C309.822 592.981 302.787 590.494 297.53 585.521C292.273 580.547 289.644 573.886 289.644 565.537C289.644 555.899 292.879 548.58 299.347 543.581C305.815 538.582 315.311 536.082 327.835 536.082L346.93 536.082L346.93 533.84C346.878 526.934 345.126 521.922 341.673 518.804C338.22 515.686 332.705 514.127 325.129 514.127C320.284 514.127 315.388 514.823 310.44 516.214C305.493 517.606 300.674 519.642 295.984 522.322L295.984 508.097C301.241 506.087 306.279 504.579 311.097 503.574C315.916 502.569 320.593 502.067 325.129 502.067C332.293 502.067 338.413 503.123 343.489 505.237C348.566 507.35 352.676 510.519 355.82 514.745C357.778 517.322 359.17 520.505 359.995 524.293C360.819 528.081 361.232 533.763 361.232 541.339Z"/>
<path d="M456.707 586.332C452.893 588.549 448.963 590.211 444.917 591.319C440.872 592.427 436.736 592.981 432.509 592.981C419.109 592.981 408.634 588.961 401.084 580.921C393.533 572.881 389.758 561.749 389.758 547.524C389.758 533.299 393.533 522.167 401.084 514.127C408.634 506.087 419.109 502.067 432.509 502.067C436.684 502.067 440.756 502.608 444.724 503.69C448.693 504.773 452.687 506.448 456.707 508.715L456.707 523.636C452.944 520.286 449.169 517.863 445.381 516.369C441.593 514.874 437.302 514.127 432.509 514.127C423.593 514.127 416.739 517.013 411.946 522.785C407.152 528.558 404.756 536.804 404.756 547.524C404.756 558.192 407.165 566.426 411.984 572.224C416.803 578.022 423.645 580.921 432.509 580.921C437.457 580.921 441.889 580.161 445.806 578.64C449.723 577.12 453.357 574.762 456.707 571.567L456.707 586.332Z"/>
<path d="M488.248 470.448L502.937 470.448L502.937 540.102L540.277 504.154L557.594 504.154L523.501 536.778L562.928 590.739L545.533 590.739L513.528 546.055L502.937 556.028L502.937 590.739L488.248 590.739L488.248 470.448Z"/>
</g>
<path d="M658.999 566.227L935.113 566.227L935.113 948.703L658.999 948.703L658.999 566.227Z" fill="#000000" fill-rule="nonzero" opacity="1" stroke="#000000" stroke-linecap="butt" stroke-linejoin="miter" stroke-width="0.525"/>
<path d="M674.054 580.424L922.372 580.424L922.372 686.976L674.054 686.976L674.054 580.424Z" fill="#ffffff" fill-rule="nonzero" opacity="1" stroke="none"/>
<path d="M673.759 702.361L922.076 702.361L922.076 808.912L673.759 808.912L673.759 702.361Z" fill="#ffffff" fill-rule="nonzero" opacity="1" stroke="none"/>
<path d="M671.966 824.994L920.283 824.994L920.283 931.545L671.966 931.545L671.966 824.994Z" fill="#ffffff" fill-rule="nonzero" opacity="1" stroke="none"/>
<path d="M674.054 580.424L922.372 580.424L922.372 686.976L674.054 686.976L674.054 580.424Z" fill="#ffffff" fill-rule="nonzero" opacity="1" stroke="none"/>
<path d="M682.309 775.209L914.918 775.209L914.918 800.664L682.309 800.664L682.309 775.209Z" fill="#000000" fill-rule="nonzero" opacity="1" stroke="none"/>
<path d="M681.325 744.65L912.942 744.65L912.942 767.39L681.325 767.39L681.325 744.65Z" fill="#000000" fill-rule="nonzero" opacity="1" stroke="none"/>
<path d="M680.622 712.311L914.531 712.311L914.531 736.359L680.622 736.359L680.622 712.311Z" fill="#000000" fill-rule="nonzero" opacity="1" stroke="none"/>
<g fill="#000000" opacity="1" stroke="none">
<path d="M761.016 615.348L713.791 633.126L761.016 650.738L761.016 660.906L702.291 637.682L702.291 628.46L761.016 605.236L761.016 615.348Z"/>
<path d="M815.296 585.791L825.852 585.791L782.183 679.295L771.572 679.295L815.296 585.791Z"/>
<path d="M839.297 615.348L839.297 605.236L898.022 628.46L898.022 637.682L839.297 660.906L839.297 650.738L886.522 633.126L839.297 615.348Z"/>
</g>
</g>
</svg>
